<svg width="20" height="20" viewBox="0 0 20 20" fill="none" xmlns="http://www.w3.org/2000/svg">
<g clip-path="url(#clip0)">
<g clip-path="url(#clip1)">
<path d="M1.59125 13.0989L11.303 7.45508L17.6069 11.0947L7.89518 16.7385L1.59125 13.0989Z" fill="#E3E7F0"/>
<path d="M2.68484 15.3051L3.15137 15.1042L2.32199 12.7109L1.0517 12.9022L0.892323 13.5898C0.892323 13.5898 0.705075 14.8371 2.68484 15.3051Z" fill="#ED5D71"/>
<path d="M17.9902 13.0774C17.9057 12.9942 17.8254 12.8902 17.7437 12.7598L17.7329 12.7418L12.3954 9.66016L2.68366 15.304L8.02118 18.3856L8.03199 18.4035C8.11364 18.534 8.194 18.638 8.27849 18.7211C8.30621 18.748 8.32644 18.7909 8.32634 18.8212C8.32629 18.8425 8.31948 18.8571 8.30789 18.864L18.0196 13.2199C18.0312 13.2133 18.038 13.1987 18.0381 13.1774C18.0382 13.147 18.018 13.1042 17.9902 13.0774Z" fill="#96D696"/>
<path d="M8.146 16.5944C7.97896 16.6927 7.87938 16.911 7.87848 17.2267C7.87759 17.5416 7.97512 17.873 8.14025 18.1637L2.9353 15.1587L1.83626 14.5241C1.60706 14.3918 1.44846 14.1717 1.35364 13.9373C1.28003 13.7544 1.24518 13.5629 1.24565 13.3972C1.24672 13.0193 1.43263 12.7185 1.84206 12.9549L8.146 16.5944Z" fill="#D3DBEA"/>
<path d="M2.69043 13.3937L2.68947 13.7328L1.59043 13.0982C1.18235 12.8626 0.995767 13.163 0.994696 13.541C0.994226 13.7067 1.02937 13.8984 1.10337 14.0814C1.19818 14.3159 1.35678 14.536 1.58598 14.6683L2.68502 15.3028L2.68407 15.638L2.26652 15.3969L2.25439 15.3689C2.23217 15.3155 2.16867 15.2392 2.07596 15.1856C1.98392 15.1325 1.92019 15.1354 1.89775 15.163L1.88551 15.1769L1.58368 15.0027C1.07138 14.7069 0.701179 14.0211 0.703017 13.3726C0.704864 12.7209 1.07774 12.4626 1.59004 12.7584L1.89187 12.9326L1.90399 12.9607C1.92621 13.014 1.98971 13.0904 2.08175 13.1436C2.17446 13.1971 2.23819 13.1942 2.26064 13.1666L2.27288 13.1526L2.69043 13.3937Z" fill="#D3374E"/>
<path d="M8.02248 18.3847L8.03328 18.4027C8.11493 18.5332 8.1953 18.6372 8.27979 18.7203C8.30751 18.7472 8.32772 18.79 8.32764 18.8203C8.32751 18.8647 8.29832 18.8797 8.25772 18.8563L3.83177 16.3009L3.41354 16.0595L3.03321 15.8399L2.73138 15.6656L2.684 15.6383L2.68495 15.3047L7.8899 18.3082L8.02248 18.3847Z" fill="#5FAF5F"/>
<path d="M8.14524 16.593L17.356 11.2402C17.1889 11.3385 17.0893 11.5568 17.0884 11.8725C17.0876 12.1874 17.1851 12.5188 17.3502 12.8095L8.13949 18.1623C7.97436 17.8715 7.87683 17.5401 7.87773 17.2252C7.87862 16.9095 7.97821 16.6913 8.14524 16.593Z" fill="#E3E7F0"/>
<path d="M18.0449 11.0875C18.0449 11.1058 18.0388 11.121 18.0266 11.1271L8.31597 16.7719C8.3251 16.7628 8.33425 16.7506 8.33425 16.7323C8.33425 16.6866 8.30378 16.6347 8.26416 16.6104L2.6895 13.3918L12.4032 7.75L17.9748 10.9686C18.0145 10.9899 18.0449 11.0417 18.0449 11.0875Z" fill="#77CB77"/>
<path d="M8.26451 16.6125C8.30376 16.6352 8.33411 16.6885 8.33398 16.7336C8.3339 16.764 8.31282 16.7853 8.28168 16.7728C8.19766 16.7593 8.11696 16.7712 8.03619 16.8086L8.02533 16.8141L2.68982 13.7336L2.69078 13.3945L8.26451 16.6125Z" fill="#5FAF5F"/>
<path d="M12.4019 7.74922L11.9843 7.50812L11.9387 7.53461C11.9065 7.5425 11.8595 7.53729 11.7932 7.49904C11.7011 7.44591 11.6376 7.36957 11.6154 7.31614L11.6033 7.28816L11.3015 7.11389C11.0598 6.97429 10.8491 6.95807 10.6938 7.0484L0.982015 12.6921C1.13733 12.6019 1.34799 12.6182 1.58972 12.7577L1.89154 12.932L1.90366 12.96C1.92588 13.0133 1.98939 13.0898 2.08142 13.1429C2.16078 13.1887 2.21891 13.1932 2.24808 13.1762L2.28123 13.1569L2.69011 13.3931L12.4019 7.74922Z" fill="#ED5D71"/>
<path d="M17.8662 11.2222L16.6761 11.9138C16.5996 11.911 16.5222 11.9061 16.4433 11.895C16.4624 11.9409 16.4714 11.9857 16.4765 12.0301L15.2861 12.722C15.2132 12.5222 15.2731 12.3312 15.4423 12.1726C15.1571 12.2726 14.8152 12.3087 14.4579 12.2605C14.5424 12.4673 14.4811 12.6655 14.3095 12.8307C14.5826 12.7325 14.9122 12.6972 15.2572 12.7387L14.0671 13.4303C13.9904 13.4277 13.9128 13.4226 13.8337 13.4118C13.8529 13.4574 13.8619 13.5025 13.8669 13.5468L12.6766 14.2387C12.6035 14.0389 12.6633 13.8479 12.8296 13.6909C12.5475 13.7892 12.2056 13.8252 11.8483 13.777C11.9327 13.9838 11.8715 14.182 11.6997 14.3475C11.9731 14.249 12.303 14.2135 12.6482 14.2552L11.458 14.9471C11.3812 14.9443 11.3034 14.9391 11.2241 14.9283C11.2433 14.9742 11.2523 15.0193 11.2574 15.0636L10.067 15.7558C9.99373 15.5557 10.0536 15.3644 10.22 15.2075C9.93788 15.3057 9.596 15.3418 9.23869 15.2936C9.32314 15.5003 9.26183 15.6985 9.09011 15.864C9.36368 15.7653 9.69374 15.73 10.0392 15.772L8.84906 16.4636C8.77198 16.4608 8.694 16.4559 8.61444 16.4448C8.63375 16.4907 8.64287 16.5361 8.64783 16.5806L8.31819 16.7722C8.32734 16.7632 8.3365 16.751 8.3365 16.7327C8.3365 16.6871 8.30601 16.635 8.26638 16.6108L7.45811 16.1442C7.65515 16.1148 7.86569 16.1092 8.08613 16.1396C7.99867 15.9313 8.06296 15.7349 8.23168 15.5709C7.94954 15.6694 7.61065 15.707 7.25334 15.6588C7.30499 15.7854 7.29523 15.9071 7.24499 16.021L6.09565 15.3575C6.29256 15.3281 6.50343 15.3227 6.72202 15.3521C6.63757 15.1453 6.69889 14.9471 6.87057 14.7852C6.58843 14.8834 6.24655 14.9195 5.88923 14.8713C5.94089 14.9979 5.93222 15.1201 5.88285 15.2348L4.73274 14.5705C4.92949 14.5411 5.13935 14.5352 5.35792 14.5646C5.27346 14.3578 5.33775 14.1614 5.50646 13.9977C5.22432 14.0959 4.88544 14.1338 4.52513 14.0838C4.57862 14.2114 4.56953 14.3333 4.51959 14.4475L3.36889 13.7832C3.56587 13.7538 3.77641 13.7482 3.99681 13.7788C3.90939 13.5703 3.97368 13.3739 4.14236 13.2102C3.86022 13.3084 3.52134 13.3463 3.16402 13.2978C3.21568 13.4244 3.20598 13.5461 3.15574 13.66L2.69174 13.3922L4.00384 12.6302C4.19746 12.6021 4.40352 12.5969 4.61806 12.6258C4.56741 12.5018 4.57572 12.3825 4.62257 12.2708L6.61546 11.1134C6.80851 11.0856 7.01389 11.0804 7.22769 11.1093C7.1772 10.9855 7.18532 10.8667 7.23165 10.7554L9.22719 9.59637C9.41959 9.56905 9.62426 9.56415 9.83729 9.59277C9.78699 9.46955 9.79495 9.35097 9.84147 9.23961L11.8388 8.0796C12.0306 8.05253 12.2346 8.04764 12.4469 8.07625C12.4031 7.96876 12.401 7.86435 12.4316 7.76562L13.5157 8.39177C13.3444 8.4093 13.1636 8.40801 12.9782 8.38301C13.0627 8.58975 13.0014 8.78798 12.8298 8.95322C13.1118 8.85165 13.4537 8.81556 13.811 8.86377C13.7672 8.75653 13.7643 8.65187 13.7944 8.55288L14.8776 9.17851C14.7073 9.19656 14.5275 9.19553 14.3423 9.17052C14.4268 9.37726 14.3625 9.57369 14.1909 9.73918C14.4759 9.63917 14.8148 9.60127 15.1751 9.65128C15.1298 9.54327 15.1268 9.43887 15.1568 9.33988L16.2408 9.96603C16.0702 9.98382 15.8899 9.98227 15.7034 9.95649C15.7909 10.1648 15.7266 10.3612 15.555 10.5267C15.84 10.4267 16.1789 10.389 16.5362 10.4373C16.4925 10.3303 16.4902 10.2261 16.5204 10.1277L17.6032 10.753C17.4324 10.7703 17.2523 10.769 17.0675 10.744C17.152 10.9507 17.0907 11.149 16.9191 11.3142C17.1921 11.216 17.5215 11.1807 17.8662 11.2222ZM12.2055 10.1045C12.4905 10.0047 12.8294 9.9668 13.1868 10.015C13.1023 9.80827 13.1666 9.61184 13.3383 9.44609C13.0532 9.54611 12.7143 9.58426 12.354 9.53425C12.4414 9.74279 12.3771 9.93922 12.2055 10.1045ZM10.8414 9.31694C11.1264 9.21718 11.4654 9.17903 11.8256 9.22904C11.7382 9.0205 11.8025 8.82407 11.9742 8.65857C11.6891 8.75859 11.3502 8.79649 10.9929 8.74828C11.0773 8.95528 11.013 9.15171 10.8414 9.31694ZM10.2202 10.47C10.5022 10.3682 10.8441 10.3321 11.2014 10.3803C11.1169 10.1735 11.1783 9.97531 11.353 9.81162C11.0678 9.91164 10.7259 9.94773 10.3686 9.89952C10.4531 10.1063 10.3918 10.3045 10.2202 10.47ZM9.59575 11.6212C9.88091 11.5212 10.2198 11.4833 10.5771 11.5315C10.4927 11.3248 10.557 11.1284 10.7288 10.9629C10.4436 11.0629 10.1047 11.1008 9.74436 11.0508C9.83181 11.2593 9.76752 11.4557 9.59575 11.6212ZM8.23164 10.8337C8.51684 10.7337 8.85573 10.6958 9.21604 10.7458C9.12862 10.537 9.1929 10.3406 9.36465 10.1751C9.07948 10.2751 8.74056 10.313 8.38325 10.2648C8.4677 10.4715 8.40342 10.668 8.23164 10.8337ZM7.61039 11.9865C7.8926 11.8847 8.23448 11.8486 8.59179 11.8968C8.50734 11.6901 8.56866 11.4918 8.7403 11.3299C8.4582 11.4282 8.11632 11.4642 7.759 11.416C7.84346 11.6228 7.78214 11.821 7.61039 11.9865ZM6.13071 12.8465C5.8486 12.9447 5.50669 12.9808 5.14937 12.9326C5.23383 13.1396 5.17254 13.3375 5.00076 13.503C5.28297 13.4015 5.62485 13.3651 5.98216 13.4133C5.89771 13.2066 5.95903 13.0083 6.13071 12.8465ZM6.60641 12.2623C6.51899 12.0538 6.58327 11.8574 6.75196 11.6934C6.46985 11.7919 6.13093 11.8295 5.77365 11.7813C5.85808 11.9883 5.79379 12.1847 5.62205 12.3502C5.90722 12.2502 6.24613 12.2123 6.60641 12.2623ZM7.49182 13.6322C7.20971 13.7304 6.87079 13.7685 6.51348 13.7201C6.59793 13.9271 6.53365 14.1235 6.36191 14.289C6.64707 14.189 6.98596 14.1511 7.34627 14.2011C7.25885 13.9925 7.32313 13.7961 7.49182 13.6322ZM7.96755 13.048C7.88309 12.8413 7.94738 12.6449 8.11606 12.4812C7.83395 12.5794 7.49504 12.6173 7.13476 12.5673C7.22218 12.7758 7.1579 12.9723 6.98615 13.1377C7.27132 13.0377 7.6102 12.9998 7.96755 13.048ZM8.85592 14.4199C8.57378 14.5182 8.2349 14.556 7.87459 14.506C7.96204 14.7146 7.89775 14.911 7.72601 15.0765C8.01118 14.9765 8.35006 14.9386 8.70738 14.9868C8.62292 14.7801 8.68723 14.5836 8.85592 14.4199ZM9.48016 13.2687C9.19806 13.3669 8.85618 13.403 8.49883 13.3548C8.58329 13.5615 8.522 13.7598 8.35025 13.9253C8.63243 13.8234 8.97431 13.7874 9.33165 13.8356C9.2472 13.6288 9.30848 13.4306 9.48016 13.2687ZM9.9559 12.6843C9.86845 12.476 9.93273 12.2796 10.1014 12.1157C9.81931 12.2141 9.48042 12.2518 9.12311 12.2036C9.20756 12.4106 9.14325 12.607 8.9715 12.7725C9.25667 12.6725 9.59559 12.6346 9.9559 12.6843ZM10.8413 14.0544C10.5592 14.1526 10.2203 14.1905 9.86294 14.1423C9.94739 14.3491 9.88311 14.5455 9.71136 14.7112C9.99653 14.611 10.3354 14.5733 10.6957 14.6231C10.6083 14.4145 10.6726 14.2181 10.8413 14.0544ZM11.4655 12.9034C11.1834 13.0016 10.8445 13.0395 10.4842 12.9895C10.5716 13.1981 10.5074 13.3945 10.3356 13.56C10.6208 13.46 10.9597 13.4221 11.317 13.4703C11.2325 13.2635 11.2968 13.0671 11.4655 12.9034ZM12.0928 11.7504C11.8077 11.8504 11.4658 11.8865 11.1085 11.8383C11.1929 12.045 11.1316 12.2433 10.9599 12.4087C11.2421 12.3069 11.5839 12.2708 11.9412 12.319C11.8568 12.1123 11.9181 11.9141 12.0928 11.7504ZM12.5655 11.1678C12.4781 10.9593 12.5424 10.7628 12.7141 10.5973C12.4289 10.6974 12.09 10.7352 11.7327 10.687C11.8172 10.8938 11.7529 11.0902 11.5813 11.2557C11.8663 11.1557 12.2052 11.118 12.5655 11.1678ZM13.454 12.5361C13.1688 12.6361 12.8299 12.674 12.4726 12.6258C12.557 12.8325 12.4927 13.029 12.321 13.1947C12.6062 13.0947 12.945 13.0565 13.3054 13.1066C13.2179 12.898 13.2822 12.7016 13.454 12.5361ZM14.0782 11.3851C13.793 11.4851 13.4541 11.5228 13.0938 11.473C13.1813 11.6816 13.117 11.878 12.9454 12.0432C13.2304 11.9435 13.5693 11.9056 13.9266 11.9538C13.8422 11.747 13.9065 11.5506 14.0782 11.3851ZM14.7025 10.2339C14.4173 10.3339 14.0754 10.37 13.7181 10.3218C13.8025 10.5285 13.7412 10.7267 13.5696 10.8922C13.8517 10.7904 14.1935 10.7543 14.5509 10.8025C14.4664 10.5958 14.5277 10.3976 14.7025 10.2339ZM16.0636 11.0196C15.7784 11.1196 15.4395 11.1575 15.0822 11.1093C15.1666 11.316 15.1023 11.5124 14.9307 11.6779C15.2158 11.5779 15.5547 11.54 15.915 11.59C15.8275 11.3815 15.8918 11.1851 16.0636 11.0196Z" fill="#96D696"/>
<path d="M2.56781 10.5989L12.2796 4.95508L18.5835 8.59465L8.87174 14.2385L2.56781 10.5989Z" fill="#E3E7F0"/>
<path d="M3.6614 12.8051L4.12793 12.6042L3.29856 10.2109L2.02827 10.4022L1.86889 11.0898C1.86889 11.0898 1.68165 12.3371 3.6614 12.8051Z" fill="#ED5D71"/>
<path d="M18.9668 10.5774C18.8823 10.4942 18.8019 10.3902 18.7203 10.2598L18.7095 10.2418L13.372 7.16016L3.66021 12.804L8.99774 15.8856L9.00854 15.9035C9.09019 16.034 9.17056 16.138 9.25505 16.2211C9.28277 16.248 9.30299 16.2909 9.3029 16.3212C9.30285 16.3425 9.29604 16.3571 9.28445 16.364L18.9962 10.7199C19.0078 10.7133 19.0146 10.6987 19.0146 10.6774C19.0147 10.647 18.9945 10.6042 18.9668 10.5774Z" fill="#FFDD94"/>
<path d="M9.12256 14.0944C8.95553 14.1927 8.85594 14.411 8.85505 14.7267C8.85415 15.0416 8.95168 15.373 9.11682 15.6637L3.91186 12.6587L2.81281 12.0241C2.58361 11.8918 2.42501 11.6717 2.3302 11.4373C2.25659 11.2544 2.22173 11.0629 2.2222 10.8972C2.22327 10.5193 2.40918 10.2185 2.81862 10.4549L9.12256 14.0944Z" fill="#D3DBEA"/>
<path d="M3.66699 10.8937L3.66603 11.2328L2.56699 10.5982C2.15891 10.3626 1.97233 10.663 1.97126 11.041C1.97079 11.2067 2.00593 11.3984 2.07993 11.5814C2.17474 11.8159 2.33335 12.036 2.56254 12.1683L3.66158 12.8028L3.66063 13.138L3.24308 12.8969L3.23095 12.8689C3.20874 12.8155 3.14523 12.7392 3.05252 12.6856C2.96048 12.6325 2.89676 12.6354 2.87431 12.663L2.86207 12.6769L2.56024 12.5027C2.04794 12.2069 1.67774 11.5211 1.67958 10.8726C1.68143 10.2209 2.0543 9.96261 2.5666 10.2584L2.86843 10.4326L2.88055 10.4607C2.90277 10.514 2.96627 10.5904 3.05831 10.6436C3.15102 10.6971 3.21475 10.6942 3.2372 10.6666L3.24944 10.6526L3.66699 10.8937Z" fill="#D3374E"/>
<path d="M8.99904 15.8848L9.00984 15.9027C9.09149 16.0332 9.17186 16.1372 9.25636 16.2203C9.28407 16.2472 9.30429 16.29 9.3042 16.3203C9.30407 16.3647 9.27488 16.3797 9.23428 16.3563L4.80834 13.8009L4.39011 13.5595L4.00978 13.3399L3.70795 13.1656L3.66058 13.1383L3.66152 12.8047L8.86646 15.8082L8.99904 15.8848Z" fill="#EFA143"/>
<path d="M9.1218 14.093L18.3325 8.74023C18.1655 8.83853 18.0659 9.05677 18.065 9.37247C18.0641 9.68737 18.1616 10.0188 18.3268 10.3095L9.11606 15.6623C8.95092 15.3715 8.8534 15.0401 8.85429 14.7252C8.85519 14.4095 8.95477 14.1913 9.1218 14.093Z" fill="#E3E7F0"/>
<path d="M19.0215 8.58753C19.0215 8.60584 19.0154 8.62102 19.0032 8.62712L9.29253 14.2719C9.30167 14.2628 9.31082 14.2506 9.31082 14.2323C9.31082 14.1866 9.28035 14.1347 9.24072 14.1104L3.66607 10.8918L13.3798 5.25L18.9514 8.46862C18.991 8.4899 19.0215 8.5417 19.0215 8.58753Z" fill="#FEBB61"/>
<path d="M9.24107 14.1125C9.28032 14.1352 9.31067 14.1885 9.31055 14.2336C9.31046 14.264 9.28939 14.2853 9.25824 14.2728C9.17423 14.2593 9.09353 14.2712 9.01276 14.3086L9.00189 14.3141L3.66639 11.2336L3.66735 10.8945L9.24107 14.1125Z" fill="#EFA143"/>
<path d="M13.3784 5.24922L12.9609 5.00812L12.9152 5.03461C12.8831 5.0425 12.8361 5.03729 12.7697 4.99904C12.6777 4.94591 12.6142 4.86957 12.592 4.81614L12.5799 4.78816L12.278 4.61389C12.0363 4.47429 11.8256 4.45807 11.6703 4.5484L1.95857 10.1921C2.11389 10.1019 2.32455 10.1182 2.56628 10.2577L2.86809 10.432L2.88022 10.46C2.90244 10.5133 2.96595 10.5898 3.05798 10.6429C3.13734 10.6887 3.19547 10.6932 3.22464 10.6762L3.25779 10.6569L3.66667 10.8931L13.3784 5.24922Z" fill="#ED5D71"/>
<path d="M18.8428 8.72219L17.6527 9.41381C17.5761 9.41097 17.4988 9.40608 17.4199 9.39499C17.439 9.44088 17.448 9.48573 17.453 9.53007L16.2626 10.2219C16.1897 10.0222 16.2497 9.83116 16.4189 9.67262C16.1337 9.77264 15.7918 9.80873 15.4345 9.76052C15.5189 9.96726 15.4576 10.1655 15.2861 10.3307C15.5591 10.2325 15.8888 10.1972 16.2338 10.2387L15.0437 10.9303C14.9669 10.9277 14.8894 10.9226 14.8102 10.9118C14.8294 10.9574 14.8384 11.0025 14.8435 11.0468L13.6531 11.7387C13.58 11.5389 13.6399 11.3479 13.8062 11.1909C13.5241 11.2892 13.1822 11.3252 12.8249 11.277C12.9093 11.4838 12.848 11.682 12.6763 11.8475C12.9497 11.749 13.2795 11.7135 13.6248 11.7552L12.4346 12.4471C12.3577 12.4443 12.28 12.4391 12.2006 12.4283C12.2199 12.4742 12.2289 12.5193 12.2339 12.5636L11.0436 13.2558C10.9703 13.0557 11.0302 12.8644 11.1966 12.7075C10.9144 12.8057 10.5726 12.8418 10.2153 12.7936C10.2997 13.0003 10.2384 13.1985 10.0667 13.364C10.3402 13.2653 10.6703 13.23 11.0158 13.272L9.82562 13.9636C9.74854 13.9608 9.67056 13.9559 9.59101 13.9448C9.61031 13.9907 9.61943 14.0361 9.62439 14.0806L9.29475 14.2722C9.3039 14.2632 9.31306 14.251 9.31306 14.2327C9.31306 14.1871 9.28257 14.135 9.24294 14.1108L8.43467 13.6442C8.63171 13.6148 8.84225 13.6092 9.06269 13.6396C8.97524 13.4313 9.03952 13.2349 9.20824 13.0709C8.9261 13.1694 8.58721 13.207 8.2299 13.1588C8.28155 13.2854 8.27179 13.4071 8.22155 13.521L7.07221 12.8575C7.26912 12.8281 7.47999 12.8227 7.69858 12.8521C7.61413 12.6453 7.67545 12.4471 7.84713 12.2852C7.56499 12.3834 7.22311 12.4195 6.8658 12.3713C6.91745 12.4979 6.90878 12.6201 6.85942 12.7348L5.7093 12.0705C5.90605 12.0411 6.11591 12.0352 6.33448 12.0646C6.25003 11.8578 6.31431 11.6614 6.48303 11.4977C6.20089 11.5959 5.862 11.6338 5.50169 11.5838C5.55518 11.7114 5.54609 11.8333 5.49615 11.9475L4.34545 11.2832C4.54243 11.2538 4.75297 11.2482 4.97337 11.2788C4.88595 11.0703 4.95024 10.8739 5.11892 10.7102C4.83678 10.8084 4.4979 10.8463 4.14058 10.7978C4.19224 10.9244 4.18254 11.0461 4.1323 11.16L3.6683 10.8922L4.9804 10.1302C5.17402 10.1021 5.38008 10.0969 5.59462 10.1258C5.54397 10.0018 5.55228 9.88245 5.59913 9.77083L7.59202 8.61341C7.78507 8.58556 7.99045 8.58041 8.20425 8.60928C8.15376 8.48555 8.16188 8.36671 8.20821 8.25535L10.2037 7.09637C10.3961 7.06905 10.6008 7.06415 10.8138 7.09276C10.7635 6.96955 10.7715 6.85097 10.818 6.73961L12.8153 5.5796C13.0072 5.55253 13.2112 5.54764 13.4235 5.57625C13.3796 5.46876 13.3775 5.36435 13.4081 5.26562L14.4923 5.89177C14.3209 5.9093 14.1402 5.90801 13.9548 5.88301C14.0392 6.08975 13.9779 6.28798 13.8063 6.45321C14.0884 6.35165 14.4303 6.31556 14.7876 6.36376C14.7438 6.25653 14.7408 6.15187 14.771 6.05288L15.8542 6.67851C15.6838 6.69656 15.5041 6.69553 15.3189 6.67052C15.4034 6.87726 15.339 7.07369 15.1675 7.23918C15.4525 7.13917 15.7914 7.10127 16.1517 7.15128C16.1064 7.04327 16.1034 6.93887 16.1334 6.83988L17.2173 7.46603C17.0468 7.48382 16.8665 7.48227 16.68 7.45649C16.7675 7.66478 16.7031 7.86121 16.5316 8.0267C16.8166 7.92668 17.1555 7.88905 17.5128 7.93725C17.4691 7.83027 17.4667 7.72613 17.497 7.62766L18.5797 8.25303C18.409 8.2703 18.2288 8.26901 18.0441 8.24401C18.1285 8.45075 18.0672 8.64898 17.8957 8.81422C18.1686 8.716 18.498 8.68069 18.8428 8.72219ZM13.1821 7.60446C13.4671 7.5047 13.806 7.4668 14.1633 7.51501C14.0789 7.30827 14.1432 7.11184 14.3149 6.94609C14.0297 7.04611 13.6908 7.08426 13.3305 7.03425C13.418 7.24279 13.3537 7.43922 13.1821 7.60446ZM11.818 6.81694C12.103 6.71718 12.4419 6.67903 12.8022 6.72904C12.7148 6.52049 12.7791 6.32407 12.9508 6.15857C12.6656 6.25859 12.3268 6.29648 11.9694 6.24828C12.0539 6.45528 11.9896 6.6517 11.818 6.81694ZM11.1967 7.96999C11.4788 7.86817 11.8206 7.83208 12.178 7.88028C12.0935 7.67354 12.1548 7.47531 12.3296 7.31162C12.0444 7.41164 11.7025 7.44773 11.3452 7.39952C11.4296 7.60626 11.3683 7.80449 11.1967 7.96999ZM10.5723 9.12123C10.8575 9.02121 11.1964 8.98332 11.5537 9.03152C11.4693 8.82478 11.5335 8.62836 11.7053 8.46286C11.4201 8.56288 11.0812 8.60077 10.7209 8.55077C10.8084 8.75931 10.7441 8.95574 10.5723 9.12123ZM9.2082 8.33371C9.49341 8.2337 9.83229 8.1958 10.1926 8.24581C10.1052 8.03701 10.1695 7.84058 10.3412 7.67509C10.056 7.77511 9.71712 7.813 9.35981 7.7648C9.44427 7.97153 9.37998 8.16796 9.2082 8.33371ZM8.58696 9.4865C8.86916 9.38468 9.21104 9.34859 9.56835 9.3968C9.4839 9.19006 9.54522 8.99183 9.71687 8.82994C9.43476 8.92815 9.09288 8.96424 8.73557 8.91604C8.82002 9.12278 8.7587 9.32101 8.58696 9.4865ZM7.10727 10.3465C6.82516 10.4447 6.48325 10.4808 6.12594 10.4326C6.21039 10.6396 6.1491 10.8375 5.97733 11.003C6.25953 10.9015 6.60141 10.8651 6.95872 10.9133C6.87427 10.7066 6.93559 10.5083 7.10727 10.3465ZM7.58297 9.76233C7.49555 9.55378 7.55983 9.35736 7.72852 9.19341C7.44641 9.29188 7.1075 9.32952 6.75021 9.28131C6.83464 9.48831 6.77035 9.68474 6.59861 9.85023C6.88378 9.75021 7.22269 9.71232 7.58297 9.76233ZM8.46838 11.1322C8.18627 11.2304 7.84735 11.2685 7.49004 11.2201C7.5745 11.4271 7.51021 11.6235 7.33847 11.789C7.62363 11.689 7.96252 11.6511 8.32283 11.7011C8.23541 11.4925 8.29969 11.2961 8.46838 11.1322ZM8.94411 10.548C8.85965 10.3413 8.92394 10.1449 9.09262 9.98118C8.81052 10.0794 8.4716 10.1173 8.11132 10.0673C8.19874 10.2758 8.13446 10.4723 7.96271 10.6377C8.24788 10.5377 8.58676 10.4998 8.94411 10.548ZM9.83248 11.9199C9.55034 12.0182 9.21146 12.056 8.85115 12.006C8.9386 12.2146 8.87432 12.411 8.70257 12.5765C8.98774 12.4765 9.32662 12.4386 9.68394 12.4868C9.59948 12.2801 9.6638 12.0836 9.83248 11.9199ZM10.4567 10.7687C10.1746 10.8669 9.83274 10.903 9.47539 10.8548C9.55985 11.0615 9.49856 11.2598 9.32681 11.4253C9.60899 11.3234 9.95087 11.2874 10.3082 11.3356C10.2238 11.1288 10.285 10.9306 10.4567 10.7687ZM10.9325 10.1843C10.845 9.97603 10.9093 9.7796 11.078 9.61565C10.7959 9.71412 10.457 9.75176 10.0997 9.70355C10.1841 9.91055 10.1198 10.107 9.94806 10.2725C10.2332 10.1725 10.5721 10.1346 10.9325 10.1843ZM11.8178 11.5544C11.5357 11.6526 11.1968 11.6905 10.8395 11.6423C10.924 11.8491 10.8597 12.0455 10.6879 12.2112C10.9731 12.111 11.312 12.0733 11.6723 12.1231C11.5849 11.9145 11.6491 11.7181 11.8178 11.5544ZM12.4421 10.4034C12.16 10.5016 11.8211 10.5395 11.4608 10.4895C11.5482 10.6981 11.4839 10.8945 11.3122 11.06C11.5973 10.96 11.9363 10.9221 12.2936 10.9703C12.2091 10.7635 12.2734 10.5671 12.4421 10.4034ZM13.0694 9.25038C12.7842 9.3504 12.4423 9.38649 12.085 9.33828C12.1695 9.54502 12.1082 9.74325 11.9364 9.90875C12.2186 9.80692 12.5605 9.77083 12.9178 9.81904C12.8334 9.6123 12.8947 9.41407 13.0694 9.25038ZM13.5421 8.6678C13.4546 8.45925 13.5189 8.26283 13.6907 8.09733C13.4055 8.19735 13.0666 8.23524 12.7093 8.18704C12.7937 8.39378 12.7294 8.59021 12.5579 8.7557C12.8429 8.65568 13.1817 8.61805 13.5421 8.6678ZM14.4305 10.0361C14.1453 10.1361 13.8064 10.174 13.4491 10.1258C13.5336 10.3325 13.4693 10.529 13.2976 10.6947C13.5827 10.5947 13.9216 10.5565 14.2819 10.6066C14.1945 10.398 14.2587 10.2016 14.4305 10.0361ZM15.0548 8.8851C14.7696 8.98512 14.4307 9.02276 14.0704 8.97301C14.1578 9.18155 14.0935 9.37798 13.922 9.54321C14.207 9.44345 14.5458 9.40556 14.9032 9.45377C14.8187 9.24703 14.883 9.0506 15.0548 8.8851ZM15.679 7.73386C15.3938 7.83388 15.052 7.86997 14.6946 7.82176C14.7791 8.0285 14.7178 8.22674 14.5462 8.39223C14.8282 8.29041 15.1701 8.25432 15.5274 8.30252C15.443 8.09578 15.5043 7.89755 15.679 7.73386ZM17.0401 8.51957C16.755 8.61959 16.416 8.65749 16.0587 8.60928C16.1432 8.81602 16.0789 9.01245 15.9073 9.17794C16.1923 9.07792 16.5312 9.04003 16.8915 9.09004C16.8041 8.8815 16.8684 8.68507 17.0401 8.51957Z" fill="#FFDD94"/>
<path d="M0.888123 7.86456L10.5999 2.2207L16.9038 5.86028L7.19205 11.5041L0.888123 7.86456Z" fill="#E3E7F0"/>
<path d="M1.98171 10.0708L2.44824 9.86986L1.61887 7.47656L0.348571 7.66784L0.189196 8.35542C0.189196 8.35542 0.00194764 9.60274 1.98171 10.0708Z" fill="#ED5D71"/>
<path d="M17.2871 7.843C17.2026 7.75981 17.1223 7.65578 17.0406 7.52541L17.0298 7.5074L11.6923 4.42578L1.98052 10.0696L7.31805 13.1513L7.32885 13.1691C7.4105 13.2996 7.49087 13.4037 7.57536 13.4867C7.60308 13.5136 7.6233 13.5565 7.62321 13.5869C7.62316 13.6082 7.61635 13.6227 7.60476 13.6296L17.3165 7.98557C17.3281 7.97888 17.3349 7.96429 17.335 7.94301C17.3351 7.91265 17.3148 7.86979 17.2871 7.843Z" fill="#7BB1FF"/>
<path d="M7.44287 11.3601C7.27584 11.4584 7.17625 11.6766 7.17536 11.9923C7.17447 12.3072 7.27199 12.6386 7.43713 12.9294L2.23218 9.92429L1.13314 9.28976C0.903941 9.15743 0.745337 8.93735 0.650521 8.70288C0.576912 8.52 0.542057 8.32848 0.542527 8.16284C0.543598 7.78491 0.729505 7.48411 1.13894 7.7205L7.44287 11.3601Z" fill="#D3DBEA"/>
<path d="M1.9873 8.15932L1.98634 8.4984L0.887315 7.86387C0.479239 7.62826 0.292656 7.92867 0.291584 8.3066C0.291115 8.47228 0.326257 8.66401 0.400255 8.84703C0.495069 9.0815 0.65367 9.30158 0.882864 9.4339L1.98189 10.0684L1.98094 10.4036L1.56339 10.1625L1.55127 10.1345C1.52905 10.0812 1.46555 10.0048 1.37284 9.95124C1.2808 9.8981 1.21708 9.90103 1.19463 9.9286L1.18239 9.94254L0.88056 9.76827C0.368266 9.4725 -0.00193095 8.78674 -9.2268e-05 8.1382C0.00175548 7.48654 0.374629 7.22823 0.886921 7.52401L1.18875 7.69827L1.20087 7.72631C1.22309 7.77967 1.28659 7.85605 1.37863 7.90919C1.47134 7.96272 1.53507 7.95979 1.55751 7.93222L1.56976 7.91825L1.9873 8.15932Z" fill="#D3374E"/>
<path d="M7.31935 13.1504L7.33015 13.1683C7.4118 13.2988 7.49217 13.4028 7.57667 13.4859C7.60438 13.5128 7.6246 13.5556 7.62451 13.5859C7.62439 13.6303 7.5952 13.6453 7.55459 13.6219L3.12864 11.0666L2.71041 10.8251L2.33007 10.6055L2.02824 10.4313L1.98087 10.4039L1.98181 10.0703L7.18677 13.0738L7.31935 13.1504Z" fill="#3A53D0"/>
<path d="M7.44211 11.3586L16.6528 6.00586C16.4858 6.10415 16.3862 6.32239 16.3853 6.6381C16.3844 6.953 16.482 7.28441 16.6471 7.57515L7.43637 12.9279C7.27123 12.6371 7.17371 12.3057 7.1746 11.9908C7.1755 11.6751 7.27508 11.4569 7.44211 11.3586Z" fill="#E3E7F0"/>
<path d="M17.3418 5.85316C17.3418 5.87146 17.3357 5.88664 17.3235 5.89275L7.61284 11.5375C7.62198 11.5284 7.63113 11.5162 7.63113 11.4979C7.63113 11.4522 7.60066 11.4003 7.56103 11.376L1.98638 8.1574L11.7001 2.51562L17.2717 5.73425C17.3113 5.75553 17.3418 5.80732 17.3418 5.85316Z" fill="#5793FB"/>
<path d="M7.56139 11.3781C7.60064 11.4008 7.63099 11.4542 7.63086 11.4993C7.63077 11.5296 7.6097 11.5509 7.57855 11.5384C7.49454 11.5249 7.41384 11.5368 7.33307 11.5743L7.32221 11.5797L1.9867 8.49923L1.98767 8.16016L7.56139 11.3781Z" fill="#3A53D0"/>
<path d="M11.6987 2.51484L11.2812 2.27375L11.2356 2.30024C11.2034 2.30813 11.1564 2.30292 11.0901 2.26467C10.998 2.21154 10.9345 2.13519 10.9123 2.08176L10.9002 2.05379L10.5983 1.87951C10.3566 1.73992 10.146 1.72369 9.99064 1.81403L0.278894 7.45774C0.434211 7.36755 0.644872 7.38378 0.8866 7.52337L1.18841 7.69765L1.20054 7.72562C1.22276 7.7789 1.28627 7.8554 1.3783 7.90853C1.45766 7.95437 1.51579 7.95883 1.54496 7.94187L1.57811 7.92252L1.98699 8.1587L11.6987 2.51484Z" fill="#ED5D71"/>
<path d="M17.1631 5.98781L15.973 6.67943C15.8965 6.67659 15.8191 6.6717 15.7402 6.66061C15.7593 6.7065 15.7683 6.75135 15.7733 6.79569L14.5829 7.48757C14.5101 7.28779 14.57 7.09677 14.7392 6.93824C14.454 7.03826 14.1121 7.07435 13.7548 7.02614C13.8392 7.23288 13.7779 7.43111 13.6064 7.59635C13.8795 7.49814 14.2091 7.46282 14.5541 7.50432L13.364 8.19594C13.2872 8.19337 13.2097 8.18821 13.1305 8.17738C13.1498 8.22301 13.1587 8.26812 13.1638 8.31246L11.9734 9.00434C11.9004 8.80456 11.9602 8.61355 12.1265 8.45656C11.8444 8.55477 11.5025 8.59086 11.1452 8.54266C11.2296 8.7494 11.1683 8.94763 10.9966 9.11312C11.27 9.01465 11.5999 8.97908 11.9451 9.02084L10.7549 9.71271C10.678 9.70988 10.6003 9.70472 10.521 9.6939C10.5402 9.73978 10.5492 9.78489 10.5542 9.82923L9.36388 10.5214C9.2906 10.3213 9.35047 10.1301 9.5169 9.97307C9.23476 10.0713 8.89288 10.1074 8.53557 10.0592C8.62002 10.2659 8.5587 10.4641 8.38699 10.6296C8.66056 10.5309 8.99061 10.4956 9.3361 10.5376L8.14594 11.2292C8.06886 11.2264 7.99088 11.2215 7.91132 11.2104C7.93062 11.2563 7.93974 11.3017 7.94471 11.3463L7.61507 11.5378C7.62422 11.5288 7.63337 11.5167 7.63337 11.4984C7.63337 11.4527 7.60289 11.4007 7.56326 11.3764L6.75499 10.9098C6.95203 10.8805 7.16257 10.8748 7.38301 10.9052C7.29555 10.6969 7.35984 10.5005 7.52855 10.3365C7.24641 10.435 6.90753 10.4726 6.55022 10.4244C6.60187 10.551 6.59211 10.6727 6.54187 10.7866L5.39253 10.1231C5.58944 10.0937 5.80031 10.0883 6.0189 10.1177C5.93445 9.91095 5.99577 9.71271 6.16745 9.55083C5.88531 9.64904 5.54343 9.68513 5.18611 9.63693C5.23777 9.7635 5.2291 9.88568 5.17973 10.0004L4.02962 9.3361C4.22637 9.30671 4.43624 9.30078 4.6548 9.33017C4.57034 9.12343 4.63463 8.927 4.80334 8.76331C4.5212 8.86153 4.18232 8.89942 3.82201 8.84941C3.8755 8.97701 3.86641 9.09894 3.81647 9.21314L2.66578 8.54884C2.86275 8.51946 3.07329 8.51378 3.29369 8.54446C3.20627 8.33592 3.27056 8.13949 3.43924 7.9758C3.1571 8.07401 2.81822 8.11191 2.46091 8.06344C2.51256 8.19001 2.50286 8.31169 2.45262 8.42562L1.98862 8.15779L3.30072 7.3958C3.49434 7.3677 3.7004 7.36254 3.91494 7.39142C3.86429 7.26742 3.8726 7.14807 3.91945 7.03645L5.91234 5.87903C6.10539 5.85119 6.31077 5.84603 6.52457 5.8749C6.47408 5.75117 6.4822 5.63233 6.52853 5.52097L8.52407 4.362C8.71647 4.33467 8.92114 4.32977 9.13416 4.35839C9.08387 4.23517 9.09182 4.11659 9.13835 4.00523L11.1357 2.84522C11.3275 2.81816 11.5315 2.81326 11.7438 2.84187C11.6999 2.73438 11.6978 2.62998 11.7285 2.53125L12.8126 3.1574C12.6413 3.17492 12.4605 3.17364 12.2751 3.14863C12.3596 3.35537 12.2982 3.5536 12.1267 3.71884C12.4087 3.61727 12.7506 3.58118 13.1079 3.62939C13.0641 3.52215 13.0611 3.41749 13.0913 3.31851L14.1745 3.94414C14.0041 3.96218 13.8244 3.96115 13.6392 3.93615C13.7237 4.14288 13.6594 4.33931 13.4878 4.50481C13.7728 4.40479 14.1117 4.36689 14.472 4.4169C14.4267 4.30889 14.4237 4.20449 14.4537 4.10551L15.5376 4.73165C15.3671 4.74944 15.1868 4.74789 15.0003 4.72211C15.0878 4.9304 15.0235 5.12683 14.8519 5.29232C15.1369 5.1923 15.4758 5.15467 15.8331 5.20287C15.7894 5.09589 15.787 4.99175 15.8173 4.89328L16.9001 5.51865C16.7293 5.53592 16.5492 5.53463 16.3644 5.50963C16.4488 5.71637 16.3876 5.9146 16.216 6.07984C16.4889 5.98162 16.8183 5.94631 17.1631 5.98781ZM11.5024 4.87008C11.7874 4.77032 12.1263 4.73242 12.4837 4.78063C12.3992 4.57389 12.4635 4.37746 12.6352 4.21171C12.3501 4.31173 12.0111 4.34988 11.6509 4.29987C11.7383 4.50842 11.674 4.70484 11.5024 4.87008ZM10.1383 4.08256C10.4233 3.9828 10.7622 3.94465 11.1225 3.99466C11.0351 3.78612 11.0994 3.58969 11.2711 3.4242C10.986 3.52421 10.6471 3.56211 10.2898 3.5139C10.3742 3.7209 10.3099 3.91733 10.1383 4.08256ZM9.51703 5.23561C9.79907 5.13379 10.141 5.0977 10.4983 5.1459C10.4138 4.93916 10.4751 4.74093 10.6499 4.57724C10.3647 4.67726 10.0228 4.71335 9.66548 4.66514C9.74993 4.87188 9.68865 5.07012 9.51703 5.23561ZM8.89263 6.38685C9.17779 6.28683 9.51671 6.24894 9.87402 6.29714C9.78957 6.0904 9.85385 5.89398 10.0256 5.72848C9.74043 5.8285 9.40155 5.86639 9.04123 5.81639C9.12869 6.02493 9.0644 6.22136 8.89263 6.38685ZM7.52852 5.59934C7.81372 5.49932 8.15261 5.46142 8.51292 5.51143C8.4255 5.30263 8.48978 5.1062 8.66153 4.94071C8.37636 5.04073 8.03744 5.07862 7.68013 5.03042C7.76458 5.23716 7.7003 5.43358 7.52852 5.59934ZM6.90727 6.75212C7.18948 6.6503 7.53136 6.61421 7.88867 6.66242C7.80422 6.45568 7.86554 6.25745 8.03718 6.09556C7.75508 6.19377 7.4132 6.22986 7.05588 6.18166C7.14034 6.3884 7.07902 6.58663 6.90727 6.75212ZM5.42759 7.61207C5.14548 7.71029 4.80357 7.74638 4.44626 7.69817C4.53071 7.90517 4.46942 8.10314 4.29765 8.26864C4.57985 8.16707 4.92173 8.13073 5.27904 8.17893C5.19459 7.97219 5.25591 7.77396 5.42759 7.61207ZM5.90329 7.02795C5.81587 6.8194 5.88015 6.62298 6.04884 6.45903C5.76673 6.5575 5.42781 6.59514 5.07053 6.54693C5.15496 6.75393 5.09067 6.95036 4.91893 7.11585C5.20409 7.01583 5.54301 6.97794 5.90329 7.02795ZM6.7887 8.39778C6.50659 8.496 6.16767 8.53415 5.81036 8.48569C5.89481 8.69268 5.83053 8.88911 5.65878 9.05461C5.94395 8.95459 6.28284 8.91669 6.64315 8.9667C6.55573 8.75816 6.62001 8.56173 6.7887 8.39778ZM7.26443 7.81366C7.17997 7.60692 7.24426 7.41049 7.41294 7.2468C7.13083 7.34501 6.79192 7.38291 6.43164 7.3329C6.51906 7.54144 6.45477 7.73787 6.28303 7.90336C6.5682 7.80335 6.90708 7.76545 7.26443 7.81366ZM8.1528 9.18556C7.87066 9.28377 7.53178 9.32166 7.17147 9.27166C7.25892 9.4802 7.19463 9.67663 7.02289 9.84212C7.30806 9.7421 7.64694 9.70421 8.00425 9.75241C7.9198 9.54567 7.98411 9.34925 8.1528 9.18556ZM8.77704 8.03432C8.49494 8.13253 8.15306 8.16862 7.79571 8.12041C7.88017 8.32715 7.81888 8.52538 7.64713 8.69088C7.92931 8.58906 8.27118 8.55297 8.62853 8.60117C8.54408 8.39443 8.60536 8.1962 8.77704 8.03432ZM9.25278 7.44993C9.16532 7.24165 9.22961 7.04522 9.39832 6.88127C9.11619 6.97974 8.7773 7.01738 8.41999 6.96917C8.50444 7.17617 8.44013 7.3726 8.26838 7.53809C8.55355 7.43807 8.89246 7.40018 9.25278 7.44993ZM10.1382 8.82003C9.85604 8.91824 9.51713 8.95613 9.15981 8.90793C9.24427 9.11467 9.17999 9.3111 9.00824 9.47685C9.29341 9.37657 9.63232 9.33894 9.9926 9.38869C9.90518 9.18014 9.96947 8.98372 10.1382 8.82003ZM10.7624 7.66904C10.4803 7.76726 10.1414 7.80515 9.78109 7.75514C9.86851 7.96368 9.80423 8.16011 9.63248 8.32561C9.91765 8.22559 10.2566 8.18769 10.6139 8.2359C10.5294 8.02916 10.5937 7.83273 10.7624 7.66904ZM11.3897 6.516C11.1045 6.61602 10.7627 6.6521 10.4053 6.6039C10.4898 6.81064 10.4285 7.00887 10.2567 7.17437C10.5389 7.07254 10.8808 7.03645 11.2381 7.08466C11.1537 6.87792 11.215 6.67969 11.3897 6.516ZM11.8624 5.93342C11.775 5.72487 11.8392 5.52845 12.011 5.36295C11.7258 5.46297 11.3869 5.50086 11.0296 5.45266C11.114 5.6594 11.0498 5.85583 10.8782 6.02132C11.1632 5.9213 11.5021 5.88367 11.8624 5.93342ZM12.7508 7.30171C12.4656 7.40173 12.1268 7.43962 11.7694 7.39142C11.8539 7.59815 11.7896 7.79458 11.6179 7.96033C11.903 7.86031 12.2419 7.82216 12.6022 7.87217C12.5148 7.66363 12.5791 7.4672 12.7508 7.30171ZM13.3751 6.15072C13.0899 6.25074 12.751 6.28838 12.3907 6.23863C12.4781 6.44717 12.4139 6.6436 12.2423 6.80883C12.5273 6.70907 12.8662 6.67118 13.2235 6.71939C13.1391 6.51265 13.2033 6.31622 13.3751 6.15072ZM13.9993 4.99948C13.7142 5.0995 13.3723 5.13559 13.0149 5.08739C13.0994 5.29413 13.0381 5.49236 12.8665 5.65785C13.1485 5.55603 13.4904 5.51994 13.8478 5.56814C13.7633 5.36141 13.8246 5.16317 13.9993 4.99948ZM15.3604 5.78519C15.0753 5.88521 14.7364 5.92311 14.379 5.8749C14.4635 6.08164 14.3992 6.27807 14.2276 6.44356C14.5126 6.34354 14.8515 6.30565 15.2118 6.35566C15.1244 6.14712 15.1887 5.95069 15.3604 5.78519Z" fill="#7BB1FF"/>
</g>
</g>
<defs>
<clipPath id="clip0">
<rect width="20" height="20" fill="white"/>
</clipPath>
<clipPath id="clip1">
<rect width="20" height="20" fill="white" transform="matrix(-1 0 0 1 20 0)"/>
</clipPath>
</defs>
</svg>
