<svg width="20" height="20" viewBox="0 0 20 20" fill="none" xmlns="http://www.w3.org/2000/svg">
<path d="M1.67676 12.5354V15.4542C1.67676 16.3616 2.16832 17.0982 2.85602 17.4943V17.4943L2.85648 17.4946C2.85746 17.4952 2.85848 17.4957 2.85945 17.4963L3.95027 18.1102C4.44062 18.4762 5.06812 18.6512 5.69812 18.5595C7.02066 19.4429 8.95246 20 11.1046 20C15.0913 20 18.3232 18.0889 18.3232 15.7315V4.26871C18.3232 4.26867 18.3232 4.26863 18.3232 4.26859C18.3232 1.91109 15.0913 0 11.1046 0C7.11797 0 3.88613 1.91109 3.88613 4.26855V8.13254C2.50617 9.16148 1.67676 10.7891 1.67676 12.5354Z" fill="#888888"/>
<path d="M18.3233 4.26758V15.7305C18.3233 18.088 15.0914 19.999 11.1047 19.999C7.11807 19.999 3.88623 18.088 3.88623 15.7305V4.26758H18.3233Z" fill="#F2F2F2"/>
<path d="M11.1046 8.5375C15.0912 8.5375 18.323 6.62632 18.323 4.26875C18.323 1.91118 15.0912 0 11.1046 0C7.118 0 3.88623 1.91118 3.88623 4.26875C3.88623 6.62632 7.118 8.5375 11.1046 8.5375Z" fill="#F34858"/>
<path d="M11.1051 7.62187C14.2374 7.62187 16.7766 6.12028 16.7766 4.26797C16.7766 2.41566 14.2374 0.914062 11.1051 0.914062C7.9728 0.914062 5.43359 2.41566 5.43359 4.26797C5.43359 6.12028 7.9728 7.62187 11.1051 7.62187Z" fill="#E0E0E0"/>
<path d="M6.54742 8.09375L5.75543 8.55102C4.05578 9.5323 3.00879 11.3458 3.00879 13.3084V16.2272C3.00879 18.0433 4.97789 19.1755 6.54742 18.262V16.2557C5.76023 16.7102 4.77621 16.1421 4.77621 15.2331V13.1863C4.77621 11.9255 5.44887 10.7604 6.54078 10.13L6.54742 8.09375Z" fill="#F34858"/>
<path d="M4.84082 15.6214C4.96746 15.5977 5.09379 15.5527 5.21539 15.4825L5.21547 15.4824L6.54746 16.255C5.88016 16.6402 5.07168 16.2905 4.84082 15.6214Z" fill="#B44210"/>
<path d="M4.42344 7.77758L5.21543 7.32031L6.54742 8.09289L5.75543 8.55016C4.05582 9.53145 3.00879 11.3449 3.00879 13.3075V16.2264C3.00879 17.0252 3.39 17.6915 3.95039 18.1098L2.85945 17.4959C2.85848 17.4954 2.85746 17.4948 2.85648 17.4942L2.85602 17.4939V17.4939C2.16832 17.0978 1.67676 16.3612 1.67676 15.4538V12.535C1.6768 10.5723 2.72383 8.75887 4.42344 7.77758Z" fill="#E63044"/>
<path d="M4.48984 18.4123L4.48979 18.4133L4.48438 18.4102C4.4862 18.4109 4.48802 18.4116 4.48984 18.4123Z" fill="#B44210"/>
<path d="M14.008 12.0982C14.5004 11.1573 15.2988 10.6964 15.7912 11.0687C16.2837 10.1278 17.082 9.66688 17.5745 10.0391C18.0669 10.4114 18.0669 11.4759 17.5745 12.4168L15.7912 15.8239L14.008 14.4759C13.5156 14.1036 13.5156 13.0391 14.008 12.0982Z" fill="#E63044"/>
</svg>
