<svg width="20" height="20" viewBox="0 0 20 20" fill="none" xmlns="http://www.w3.org/2000/svg">
<g clip-path="url(#clip0)">
<path d="M18.0179 3.26279L18.0193 3.26248L16.4748 2.37259C15.8759 2.00745 15.173 1.79688 14.4218 1.79688C13.7358 1.79688 13.0539 1.9812 12.45 2.32986L9.46365 4.05411C6.91818 5.52368 5.33691 8.26248 5.33691 11.2018C5.33691 12.6817 6.15463 13.9737 7.36145 14.6518L7.36023 14.6521L8.88962 15.5339L8.88947 15.5333C9.48227 15.8884 10.175 16.093 10.9149 16.093C11.601 16.093 12.2829 15.9087 12.8868 15.56L15.8731 13.8359C18.4186 12.3663 19.9998 9.62753 19.9998 6.68823C19.9998 5.22568 19.2014 3.94714 18.0179 3.26279ZM9.94247 11.9469C10.0085 10.1416 11.0046 8.47748 12.576 7.57019L15.3941 5.94315C15.3282 7.74841 14.332 9.41254 12.7606 10.3198L9.94247 11.9469Z" fill="#98ABE2"/>
<path d="M10.915 16.0923C8.73425 16.0923 6.95996 14.3181 6.95996 12.1373C6.95996 9.19803 8.54123 6.45923 11.0867 4.9895L14.073 3.26541C14.6771 2.91675 15.3589 2.73242 16.0449 2.73242C18.2257 2.73242 20 4.50656 20 6.68735C20 9.62665 18.4187 12.3654 15.8732 13.835L12.8869 15.5591C12.283 15.9079 11.6011 16.0923 10.915 16.0923ZM16.0449 5.71124C15.8787 5.71124 15.7164 5.75626 15.5624 5.84521L12.5761 7.56931C10.9495 8.50848 9.93893 10.2588 9.93893 12.1373C9.93893 12.7402 10.4455 13.1134 10.915 13.1134C11.0812 13.1134 11.2436 13.0683 11.3975 12.9795L14.3838 11.2552C16.0106 10.316 17.0211 8.5657 17.0211 6.68735C17.0211 6.08447 16.5144 5.71124 16.0449 5.71124Z" fill="#B3BAE9"/>
<path d="M13.9841 6.75787L12.5761 7.57071C12.3755 7.68668 12.1848 7.81561 12.0035 7.95508C12.0033 7.95508 12.0032 7.95493 12.0029 7.95477C11.9939 7.96179 10.7791 8.77859 10.1958 10.5201C10.5072 10.5869 10.8119 10.6826 11.1066 10.8042L8.73962 12.1708C7.93884 12.6331 7.02698 12.8774 6.10229 12.8774C6.03821 12.8774 5.70312 12.8617 5.70312 12.8617C5.14633 12.8193 4.60022 12.6871 4.08524 12.4743L5.37369 11.7304C5.35034 11.5575 5.33691 11.3816 5.33691 11.2023C5.33691 10.5361 5.37994 7.62732 7.98065 5.15234C6.92047 5.29623 5.8931 5.64505 4.96185 6.18262L1.97556 7.90686C0.766907 8.60464 0.0346375 9.84167 0.00152588 11.2304L0 11.2293V13.6745C0 15.1029 0.738525 16.3822 1.97556 17.0965C3.22861 17.8199 4.65561 18.2023 6.10229 18.2023C7.54913 18.2023 8.97614 17.8199 10.229 17.0965L13.2153 15.3724C14.4525 14.6581 15.191 13.379 15.191 11.9504V9.60455C15.191 8.50348 14.7517 7.49121 13.9841 6.75787Z" fill="#B2CEF3"/>
<path d="M13.9841 6.75803L12.5761 7.57086C12.1104 7.83972 11.6956 8.17557 11.3402 8.56146C11.4711 8.62326 11.6002 8.68979 11.7259 8.76257C12.1648 9.01587 12.2122 9.43594 12.2122 9.60471C12.2122 9.77347 12.1648 10.1934 11.7259 10.4468L8.73962 12.1709C7.93884 12.6333 7.02698 12.8776 6.10229 12.8776C6.03821 12.8776 5.70312 12.8618 5.70312 12.8618C4.91684 12.8019 4.15009 12.5664 3.46497 12.1709C3.02612 11.9176 2.97882 11.4976 2.97882 11.3288C2.97882 11.16 3.02612 10.7401 3.46497 10.4867L5.56778 9.27252C5.94955 7.69507 6.79092 6.25815 7.98065 5.15234C6.92047 5.29623 5.8931 5.64505 4.96185 6.18277L1.97556 7.90686C0.738525 8.62112 0 9.90042 0 11.3288C0 12.7573 0.738525 14.0365 1.97556 14.7507C3.22861 15.4742 4.65561 15.8565 6.10229 15.8565C7.54913 15.8565 8.97614 15.4742 10.229 14.7507L13.2153 13.0266C14.4525 12.3124 15.191 11.0332 15.191 9.60471C15.191 8.50363 14.7517 7.49136 13.9841 6.75803Z" fill="#CCE2FF"/>
</g>
<defs>
<clipPath id="clip0">
<rect width="20" height="20" fill="white"/>
</clipPath>
</defs>
</svg>
