<svg width="20" height="20" viewBox="0 0 20 20" fill="none" xmlns="http://www.w3.org/2000/svg">
<path d="M19.3347 10.4528C19.3347 8.61083 18.4696 6.88269 17.0041 5.68281L17.0055 5.68268C17.0055 5.68268 16.1018 3.14021 15.21 3.55345C14.9119 3.69158 14.7933 3.99697 14.7667 4.34218L10.1895 2.89985C8.20561 2.27471 6.01133 2.38895 4.16496 3.30198C3.99877 3.38411 3.83855 3.47106 3.68375 3.56219L2.56568 4.38331C0.957849 5.85359 0.329956 7.99 0.843777 10.4278L1.51283 13.0783C1.639 13.6775 2.04274 14.1969 2.61922 14.502C2.96016 14.6974 3.39081 14.7044 3.73915 14.52L3.76763 14.5049C4.13733 14.3092 4.36021 13.9523 4.3565 13.5666C4.34995 12.8907 4.34995 12.6872 4.34995 12.6872C4.34995 12.6872 6.20572 13.7164 7.15262 14.3918C9.16561 15.8277 10.5755 15.8494 10.5755 16.0002V17.8342C10.5755 18.3783 10.8916 18.8811 11.4052 19.1537L11.426 19.1648C11.8542 19.392 12.3821 19.3924 12.8108 19.1659L12.8321 19.1545C13.2732 18.9213 13.5448 18.4906 13.5445 18.0239C13.5441 17.4369 13.5439 16.6404 13.5439 16.1416C13.5439 15.8823 13.7728 15.6722 14.0557 15.6715C14.6692 15.6038 15.3316 15.4577 15.8306 15.2345C15.9659 15.5502 16.2131 15.8215 16.5437 15.9968L16.5642 16.0078C16.9924 16.235 17.5203 16.2354 17.9488 16.0088L17.9704 15.9975C18.4114 15.7643 18.683 15.3336 18.6827 14.8669C18.6823 14.4148 18.6823 13.8394 18.6821 13.3705C19.2247 12.7118 19.3348 11.8737 19.3348 10.8573L19.3347 10.4528Z" fill="#FFA6BC"/>
<path d="M17.8998 8.19027C17.8998 8.54397 17.6652 8.95473 17.3758 9.10788C17.0866 9.26103 16.8521 9.09848 16.8521 8.74478C16.8521 8.39121 17.0866 7.98032 17.3758 7.82717C17.6652 7.67402 17.8998 7.83657 17.8998 8.19027Z" fill="#162F4D"/>
<path d="M8.37848 1.26742C8.38372 1.2649 8.38906 1.26256 8.39436 1.26013C8.00418 1.43992 7.72847 1.81553 7.66328 2.34048C7.53555 3.36885 8.26317 4.58648 9.28535 5.05479C9.82024 5.29985 10.3313 5.29171 10.7154 5.08099L11.6929 4.61282C12.0738 4.43041 12.342 4.05807 12.4063 3.54022C12.5341 2.51112 11.8085 1.29696 10.7857 0.828358C10.2776 0.595546 9.79168 0.590543 9.41567 0.770623L8.66513 1.12998C8.64588 1.13856 8.62698 1.14771 8.60829 1.15724L8.37848 1.26742Z" fill="#FECE00"/>
<path d="M7.92357 2.21703C8.05012 1.18819 8.97413 0.733731 9.98761 1.2021C11.001 1.67043 11.7199 2.88416 11.5934 3.91302C11.4668 4.94187 10.5427 5.39627 9.52931 4.92794C8.51583 4.45957 7.79701 3.24588 7.92357 2.21703Z" fill="#FFDE55"/>
<path d="M8.44446 1.26411L9.46736 0.767871C9.83819 0.587997 10.3173 0.593158 10.8182 0.826027C11.8265 1.29474 12.5414 2.50856 12.4149 3.53715C12.3513 4.05474 12.0867 4.42681 11.7111 4.60903L10.6882 5.10526C11.0638 4.92306 11.3284 4.55098 11.392 4.03339C11.5185 3.00481 10.8036 1.79099 9.79532 1.32227C9.29437 1.0894 8.81528 1.08422 8.44446 1.26411Z" fill="#FECE00"/>
<path d="M8.62543 1.74343L8.8765 1.62116C8.59525 1.75814 8.39661 2.03816 8.34839 2.42764C8.25256 3.20153 8.78638 4.1193 9.53832 4.47332C9.91181 4.64916 10.27 4.65332 10.5476 4.5181L10.2966 4.64038C10.0189 4.7756 9.66073 4.77144 9.28724 4.59559C8.53529 4.24158 8.00149 3.32382 8.09731 2.54993C8.14554 2.16043 8.34416 1.88041 8.62543 1.74343Z" fill="#FECE00"/>
<path d="M7.65504 2.34234C7.78151 1.31428 8.70842 0.858784 9.72136 1.32691C10.7342 1.79499 11.4553 3.01213 11.3289 4.04019C11.2024 5.06814 10.2755 5.52364 9.26268 5.05556C8.24972 4.58744 7.52859 3.37029 7.65504 2.34234ZM10.8763 3.83103C10.9716 3.05632 10.4281 2.139 9.66485 1.78627C8.90153 1.4335 8.20293 1.77681 8.10763 2.55151C8.01235 3.32611 8.55585 4.24345 9.31917 4.59622C10.0824 4.94894 10.781 4.60563 10.8763 3.83103Z" fill="#FFE577"/>
<path d="M14.6976 9.93051C14.6976 10.2841 14.4631 10.695 14.1738 10.8481C13.8845 11.0013 13.6499 10.8387 13.6499 10.485C13.6499 10.1314 13.8845 9.72056 14.1738 9.56741C14.4631 9.41425 14.6976 9.57681 14.6976 9.93051Z" fill="#162F4D"/>
<path d="M18.046 13.9563C16.6849 15.1237 15.8291 15.2314 15.8291 15.2314C15.9645 15.5471 16.2118 15.8184 16.5422 15.9937L16.5628 16.0047C16.9911 16.2319 17.5188 16.2323 17.9475 16.0057C17.9546 16.002 17.9617 15.9982 17.9689 15.9944C18.4099 15.7612 18.6815 15.3305 18.6812 14.8638C18.6809 14.4738 18.6808 13.9924 18.6808 13.5664C18.5174 13.6893 18.0683 13.9449 18.046 13.9563Z" fill="#FF89A6"/>
<path d="M10.657 8.29615C10.4913 8.3899 10.2752 8.30882 10.2261 8.13608C10.0046 7.35817 10.215 6.27031 10.4665 5.79505C10.6914 5.36954 11.8782 6.44056 12.3957 6.9388C12.5222 7.06049 12.4946 7.25803 12.3385 7.34616L10.657 8.29615Z" fill="#FF89A6"/>
<path d="M10.8165 6.24871C10.5993 6.40342 10.5215 7.61323 10.7353 8.25235L12.1674 7.44324C12.1674 7.44311 11.0335 6.09386 10.8165 6.24871Z" fill="#FF668B"/>
<path d="M16.4611 5.36604C16.4611 5.36604 15.753 3.8622 15.4798 4.01705C15.2067 4.17177 15.3152 5.52089 15.3152 5.52089C15.3152 5.52089 15.9485 5.13141 16.4611 5.36604Z" fill="#FF668B"/>
<path d="M18.8701 10.8104L18.1681 10.4265L18.1677 10.4271C17.9514 10.3043 17.6203 10.3274 17.2486 10.5242C16.5971 10.8692 16.0688 11.6149 16.0688 12.1902C16.0688 12.4269 16.1593 12.5965 16.3098 12.6917L17.0575 13.0989C17.2737 13.2009 17.5891 13.1711 17.9417 12.9846C18.5933 12.6396 19.1215 11.8937 19.1215 11.3186C19.1215 11.0764 19.027 10.9041 18.8701 10.8104Z" fill="#FF89A6"/>
<path d="M19.1207 11.3187C19.1207 11.8938 18.5925 12.6397 17.941 12.9845C17.2894 13.3295 16.7612 13.1428 16.7612 12.5675C16.7612 11.9923 17.2894 11.2465 17.941 10.9015C18.5925 10.5567 19.1207 10.7434 19.1207 11.3187Z" fill="#FF668B"/>
<path d="M18.771 11.5906C18.771 11.698 18.7002 11.8227 18.6128 11.8692C18.5254 11.9157 18.4546 11.8663 18.4546 11.759C18.4546 11.6516 18.5254 11.5269 18.6128 11.4804C18.7002 11.4339 18.771 11.4833 18.771 11.5906Z" fill="#162F4D"/>
<path d="M17.7987 12.1199C17.7987 12.2272 17.728 12.3519 17.6406 12.3984C17.5532 12.4449 17.4824 12.3955 17.4824 12.2882C17.4824 12.1808 17.5532 12.0562 17.6406 12.0097C17.728 11.9632 17.7987 12.0126 17.7987 12.1199Z" fill="#162F4D"/>
</svg>
